# xmcd
#
# Track frame offsets: 
#        150
#        13324
#        25459
#        39317
#        51441
#        63638
#        81251
#        94636
#        107380
#        120752
#        132887
#        144970
#        157567
#        169085
#        183264
#        195029
#        208434
#        218601
#
# Disc length: 3089 seconds
#
# Revision: 0
# Processed by: cddbd v1.5.2PL0 Copyright (c) Steve Scherf et al.
# Submitted via: ExactAudioCopyFreeDBPlugin 1.0
#
DISCID=e60c0f12
DTITLE=Howlin' Wolf - Singles 1951-1953
DYEAR=1900
DGENRE=Blues
TTITLE0=Moanin' At Midnight
TTITLE1=How Many More Years
TTITLE2=Riding In The Moonlight
TTITLE3=Morning At Midnight
TTITLE4=Passing By Blues
TTITLE5=Crying At Daybreak
TTITLE6=My Baby Stole Off
TTITLE7=I Want Your Picture
TTITLE8=The Wolf Is At The Door
TTITLE9=Howlin' Wolf Boogie
TTITLE10=Getting Old And Grey
TTITLE11=Mr. Highway Man
TTITLE12=Saddle My Pony
TTITLE13=Worried All The Time
TTITLE14=Oh, Red!
TTITLE15=My Last Affair
TTITLE16=All Night Boogie
TTITLE17=I Love My Baby
EXTD=
EXTT0=
EXTT1=
EXTT2=
EXTT3=
EXTT4=
EXTT5=
EXTT6=
EXTT7=
EXTT8=
EXTT9=
EXTT10=
EXTT11=
EXTT12=
EXTT13=
EXTT14=
EXTT15=
EXTT16=
EXTT17=
PLAYORDER=
